<?xml version="1.0" encoding="UTF-8" standalone="no"?>
<svg
   xmlns:dc="http://purl.org/dc/elements/1.1/"
   xmlns:cc="http://creativecommons.org/ns#"
   xmlns:rdf="http://www.w3.org/1999/02/22-rdf-syntax-ns#"
   xmlns:svg="http://www.w3.org/2000/svg"
   xmlns="http://www.w3.org/2000/svg"
   xmlns:sodipodi="http://sodipodi.sourceforge.net/DTD/sodipodi-0.dtd"
   xmlns:inkscape="http://www.inkscape.org/namespaces/inkscape"
   id="svg3430"
   width="711.20123"
   height="383.5975"
   viewBox="0 0 711.201 383.598"
   version="1.1"
   sodipodi:docname="project-logo.svg"
   inkscape:version="0.92.1 r15371">
  <metadata
     id="metadata41">
    <rdf:RDF>
      <cc:Work
         rdf:about="">
        <dc:format>image/svg+xml</dc:format>
        <dc:type
           rdf:resource="http://purl.org/dc/dcmitype/StillImage" />
        <dc:title />
      </cc:Work>
    </rdf:RDF>
  </metadata>
  <sodipodi:namedview
     pagecolor="#ffffff"
     bordercolor="#666666"
     borderopacity="1"
     objecttolerance="10"
     gridtolerance="10"
     guidetolerance="10"
     inkscape:pageopacity="0"
     inkscape:pageshadow="2"
     inkscape:window-width="1600"
     inkscape:window-height="846"
     id="namedview39"
     showgrid="false"
     inkscape:zoom="0.6152282"
     inkscape:cx="-223.04646"
     inkscape:cy="281.51825"
     inkscape:window-x="0"
     inkscape:window-y="30"
     inkscape:window-maximized="1"
     inkscape:current-layer="g3476" />
  <defs
     id="defs3434">
    <clipPath
       id="clipPath3444">
      <path
         id="path3446"
         d="M11.52 162C11.52 81.677 135.307 16.56 288 16.56S564.48 81.678 564.48 162 440.693 307.44 288 307.44 11.52 242.32 11.52 162" />
    </clipPath>
    <radialGradient
       id="radialGradient3452"
       cx="0"
       cy="0"
       r="1"
       fx="0"
       fy="0"
       gradientTransform="matrix(363.06,0,0,-363.06,177.52,256.31)"
       gradientUnits="userSpaceOnUse"
       spreadMethod="pad">
      <stop
         id="stop3454"
         offset="0"
         stop-color="#aeb2d5" />
      <stop
         id="stop3456"
         offset="0.3"
         stop-color="#aeb2d5" />
      <stop
         id="stop3458"
         offset="0.75"
         stop-color="#484c89" />
      <stop
         id="stop3460"
         offset="1"
         stop-color="#484c89" />
    </radialGradient>
    <clipPath
       id="clipPath3468">
      <path
         id="path3470"
         d="M0 324h576V0H0v324z" />
    </clipPath>
    <clipPath
       id="clipPath3480">
      <path
         id="path3482"
         d="M0 324h576V0H0v324z" />
    </clipPath>
  </defs>
  <g
     id="g3440"
     transform="matrix(1.25,0,0,-1.25,-4.4,394.3)">
    <g
       clip-path="url(#clipPath3444)"
       id="g3442">
      <g
         id="g3448">
        <g
           id="g3450">
          <path
             inkscape:connector-curvature="0"
             style="fill:url(#radialGradient3452)"
             d="M 11.52,162 C 11.52,81.677 135.307,16.56 288,16.56 440.693,16.56 564.48,81.678 564.48,162 564.48,242.322 440.693,307.44 288,307.44 135.307,307.44 11.52,242.32 11.52,162"
             id="path3462" />
        </g>
      </g>
    </g>
  </g>
  <g
     id="g3464"
     transform="matrix(1.25,0,0,-1.25,-4.4,394.3)">
    <g
       clip-path="url(#clipPath3468)"
       id="g3466">
      <g
         transform="translate(288,27.36)"
         id="g3472">
        <path
           style="fill:#777bb3"
           inkscape:connector-curvature="0"
           d="M 0,0 C 146.73,0 265.68,60.28 265.68,134.64 265.68,209 146.73,269.283 0,269.283 c -146.73,0 -265.68,-60.282 -265.68,-134.64 C -265.68,60.28 -146.73,0 0,0"
           id="path3474" />
      </g>
    </g>
  </g>
  <g
     id="g3476"
     transform="matrix(1.25,0,0,-1.25,-4.4,394.3)">
    <g
       transform="matrix(0.85333446,0,0,-0.85333446,152.67812,271.92734)"
       id="g5207">
      <path
         inkscape:connector-curvature="0"
         d="M 243.77,129.57 C 243.78,190.08 194.74,239.14 134.23,239.14 73.721,239.14 24.67,190.08 24.69,129.57 24.674,69.061 73.721,20 134.23,20 c 60.51,0 109.55,49.061 109.54,109.57 z"
         style="fill:#939dac;stroke:#000000;stroke-width:4;stroke-linecap:round;stroke-linejoin:round"
         id="path2383" />
      <path
         inkscape:connector-curvature="0"
         d="m 243.34,139.16 c -20.83,45.69 -66.93,77.46 -120.43,77.46 -30.331,0 -58.255,-10.21 -80.566,-27.37 19.534,30.03 53.378,49.87 91.876,49.87 57.28,0 104.28,-43.94 109.12,-99.96 z"
         style="fill:#000000;fill-opacity:0.31373004"
         id="path3353" />
      <path
         inkscape:connector-curvature="0"
         d="m 50.172,230.07 c -0.006,22.68 18.377,25.57 41.057,25.57 22.681,0 41.061,-2.89 41.061,-25.57 0,-22.68 -19.15,-35.2 -41.061,-41.07 -34.081,-9.13 -41.063,18.39 -41.057,41.07 z"
         style="fill:#939dac;stroke:#000000;stroke-width:4;stroke-linecap:round;stroke-linejoin:round"
         id="path3245" />
      <path
         inkscape:connector-curvature="0"
         d="m 123.19,242.86 c 1.64,6.13 -3.25,8.27 -9.55,9.96 -6.29,1.69 -11.61,2.27 -13.25,-3.85 -1.641,-6.13 2.13,-12.47 8.43,-14.15 6.29,-1.69 12.73,1.91 14.37,8.04 z"
         style="fill:#ffffff;stroke:#000000;stroke-width:4;stroke-linecap:round;stroke-linejoin:round"
         id="path3239" />
      <path
         inkscape:connector-curvature="0"
         d="m 225.27,104.57 c 0.02,47.81 -38.73,86.57 -86.54,86.57 -47.808,0 -86.559,-38.76 -86.544,-86.57 C 52.171,56.763 90.922,18 138.73,18 c 47.81,0 86.56,38.763 86.54,86.57 z"
         style="fill:#000000;fill-opacity:0.31373004"
         id="path3307" />
      <path
         inkscape:connector-curvature="0"
         d="m 265.51,90.103 c -8.95,33.437 -36.06,55.237 -60.55,48.677 -24.48,-6.56 -37.06,-38.991 -28.09,-72.429 8.95,-33.441 29.98,-32.537 54.46,-25.977 24.49,6.56 43.15,16.292 34.18,49.729 z"
         style="fill:#939dac;stroke:#000000;stroke-width:4;stroke-linecap:round;stroke-linejoin:round"
         id="path2400" />
      <path
         inkscape:connector-curvature="0"
         d="m 4.2862,90.103 c 8.9528,33.437 36.063,55.237 60.547,48.677 24.483,-6.56 37.067,-38.991 28.096,-72.429 -8.953,-33.441 -29.981,-32.537 -54.464,-25.977 -24.483,6.56 -43.146,16.292 -34.179,49.729 z"
         style="fill:#939dac;stroke:#000000;stroke-width:4;stroke-linecap:round;stroke-linejoin:round"
         id="path3218" />
      <path
         inkscape:connector-curvature="0"
         d="m 198.94,38.179 c -9.74,2.974 -17.48,11.084 -22.06,28.188 -8.97,33.437 3.61,65.843 28.09,72.403 2.67,0.72 5.36,1.06 8.07,1.13 6.68,-12.28 10.47,-26.38 10.46,-41.346 0.01,-23.492 -9.37,-44.777 -24.56,-60.375 z"
         style="fill:#000000;fill-opacity:0.31373004"
         id="path3309" />
      <path
         inkscape:connector-curvature="0"
         d="m 205.16,43.242 c -14.77,-0.154 -26.63,6.634 -32.78,29.625 -4.97,18.526 -3.34,36.723 3.28,50.403 4.97,-23.475 27.2,-52.561 60.06,-53.997 13.33,-0.582 28.81,8.047 24.32,-2.469 -4.5,-10.515 -18.42,-15.97 -33.22,-19.937 -7.65,-2.05 -14.95,-3.555 -21.66,-3.625 z"
         style="fill:#000000;fill-opacity:0.31373004"
         id="path3314" />
      <path
         inkscape:connector-curvature="0"
         d="M 65.15,43.242 C 79.919,43.088 91.777,49.876 97.932,72.867 102.9,91.393 101.27,109.59 94.65,123.27 89.686,99.795 67.453,70.709 34.588,69.273 21.26,68.691 5.779,77.32 10.275,66.804 14.771,56.289 28.687,50.834 43.494,46.867 51.145,44.817 58.437,43.312 65.15,43.242 Z"
         style="fill:#000000;fill-opacity:0.31373004"
         id="path3321" />
      <path
         inkscape:connector-curvature="0"
         d="m 220.77,88.569 c 0.02,47.811 -38.73,86.571 -86.54,86.571 -47.808,0 -86.559,-38.76 -86.544,-86.571 C 47.671,40.763 63.763,2 134.23,2 c 71.88,0 86.56,38.763 86.54,86.569 z"
         style="fill:#939dac;stroke:#000000;stroke-width:4;stroke-linecap:round;stroke-linejoin:round"
         id="path2398" />
      <path
         inkscape:connector-curvature="0"
         d="m 130.6,72.099 c 0,12.519 -10.14,22.67 -22.66,22.67 -12.522,0 -22.67,-10.151 -22.666,-22.67 C 85.27,59.58 95.418,49.43 107.94,49.43 c 12.52,0 22.66,10.15 22.66,22.669 z"
         style="fill:#ffffff;stroke:#000000;stroke-width:4;stroke-linecap:round;stroke-linejoin:round"
         id="path3157" />
      <path
         inkscape:connector-curvature="0"
         d="m 183.33,72.099 c 0.01,12.519 -10.14,22.67 -22.66,22.67 -12.52,0 -22.67,-10.151 -22.66,-22.67 C 138,59.58 148.15,49.43 160.67,49.43 c 12.52,0 22.67,10.15 22.66,22.669 z"
         style="fill:#ffffff;stroke:#000000;stroke-width:4;stroke-linecap:round;stroke-linejoin:round"
         id="path3159" />
      <path
         inkscape:connector-curvature="0"
         d="m 163.19,76.099 c 0,4.173 -3.38,7.557 -7.56,7.557 -4.17,0 -7.55,-3.384 -7.55,-7.557 0,-4.173 3.38,-7.556 7.55,-7.556 4.18,0 7.56,3.383 7.56,7.556 z"
         style="fill:#000000"
         id="path3161" />
      <path
         inkscape:connector-curvature="0"
         d="m 121.16,76.099 c 0,4.173 -3.38,7.557 -7.56,7.557 -4.17,0 -7.55,-3.384 -7.55,-7.557 0,-4.173 3.38,-7.556 7.55,-7.556 4.18,0 7.56,3.383 7.56,7.556 z"
         style="fill:#000000"
         id="path3163" />
      <path
         inkscape:connector-curvature="0"
         d="m 224.29,230.07 c 0,22.68 -18.38,25.57 -41.06,25.57 -22.68,0 -41.06,-2.89 -41.06,-25.57 0,-22.68 19.15,-35.2 41.06,-41.07 34.08,-9.13 41.06,18.39 41.06,41.07 z"
         style="fill:#939dac;stroke:#000000;stroke-width:4;stroke-linecap:round;stroke-linejoin:round"
         id="path3220" />
      <path
         inkscape:connector-curvature="0"
         d="m 104.22,193.49 c 5.62,7.36 9.07,16.56 9.07,27.91 0,26.82 -18.387,30.25 -41.066,30.25 -3.51,0 -6.905,-0.11 -10.157,-0.35 7.44,3.61 17.752,4.35 29.157,4.35 22.676,0 41.066,-2.92 41.066,-25.6 0,-18.02 -12.1,-29.61 -28.07,-36.56 z"
         style="fill:#000000;fill-opacity:0.31373004"
         id="path3297" />
      <path
         inkscape:connector-curvature="0"
         d="m 157.46,220.5 c 0,15.78 -12.8,28.58 -28.58,28.58 -15.79,0 -28.59,-12.8 -28.58,-28.58 -0.01,-15.79 12.79,-28.59 28.58,-28.59 15.78,0 28.58,12.8 28.58,28.59 z"
         style="fill:#939dac;stroke:#000000;stroke-width:4;stroke-linecap:round;stroke-linejoin:round"
         id="path2404" />
      <path
         inkscape:connector-curvature="0"
         d="m 81.746,249.5 c -1.64,6.13 -6.952,5.54 -13.248,3.85 -6.296,-1.69 -11.19,-3.83 -9.546,-9.96 1.64,-6.13 8.074,-9.73 14.37,-8.04 6.296,1.69 10.068,8.02 8.424,14.15 z"
         style="fill:#ffffff;stroke:#000000;stroke-width:4;stroke-linecap:round;stroke-linejoin:round"
         id="path3241" />
      <path
         inkscape:connector-curvature="0"
         d="m 219.25,72.461 c -4.93,47.579 -45.14,84.689 -94.03,84.689 -26.647,0 -50.717,-11.04 -67.903,-28.78 14.4,27.79 43.443,46.78 76.903,46.78 47.81,0 86.58,-38.79 86.57,-86.596 0,-5.504 -0.55,-10.875 -1.54,-16.093 z"
         style="fill:#000000;fill-opacity:0.31373004"
         id="path3302" />
      <path
         inkscape:connector-curvature="0"
         d="m 157.39,218.99 h -45.68 c 7.66,-63.28 -7.36,-94.75 -7.36,-94.75 h 60.4 c 0,0 -15.02,32.17 -7.36,94.75 z"
         style="fill:#939dac;fill-rule:evenodd"
         id="path3188" />
      <path
         inkscape:connector-curvature="0"
         d="m 164.75,124.24 c 0,0 -15.02,32.17 -7.36,94.75 m -45.68,0 c 7.66,-63.28 -7.36,-94.75 -7.36,-94.75"
         style="fill:none;stroke:#000000;stroke-width:4;stroke-linecap:round"
         id="path3183" />
      <path
         inkscape:connector-curvature="0"
         d="m 187.44,131.78 c 6.52,5.2 6.05,33.51 2.19,38.21 -3.87,4.69 -26.86,-23.58 -22.93,-32.29 4.13,-9.16 14.61,-10.82 20.74,-5.92 z"
         style="fill:#ffffff;fill-rule:evenodd;stroke:#000000;stroke-width:4;stroke-linejoin:round"
         id="path3190" />
      <path
         inkscape:connector-curvature="0"
         d="m 118.69,113.03 c 14.5,-14.499 31,-0.5 31,-0.5"
         style="fill:none;stroke:#000000;stroke-width:4;stroke-linecap:round"
         id="path3192" />
      <path
         inkscape:connector-curvature="0"
         d="m 123.66,135.53 c 9.85,-7.89 21.07,-0.27 21.07,-0.27"
         style="fill:none;stroke:#000000;stroke-width:4;stroke-linecap:round"
         id="path3194" />
      <path
         inkscape:connector-curvature="0"
         d="m 125.31,158.03 c 8.31,-5.68 17.76,-0.2 17.76,-0.2"
         style="fill:none;stroke:#000000;stroke-width:4;stroke-linecap:round"
         id="path3196" />
      <path
         inkscape:connector-curvature="0"
         d="m 80.765,131.78 c -6.52,5.2 -6.053,33.51 -2.187,38.21 3.866,4.69 26.852,-23.58 22.922,-32.29 -4.129,-9.16 -14.602,-10.82 -20.735,-5.92 z"
         style="fill:#ffffff;fill-rule:evenodd;stroke:#000000;stroke-width:4;stroke-linejoin:round"
         id="path3214" />
      <path
         inkscape:connector-curvature="0"
         d="m 216.19,242.86 c 1.64,6.13 -3.25,8.27 -9.55,9.96 -6.29,1.69 -11.61,2.27 -13.25,-3.85 -1.64,-6.13 2.13,-12.47 8.43,-14.15 6.29,-1.69 12.73,1.91 14.37,8.04 z"
         style="fill:#ffffff;stroke:#000000;stroke-width:4;stroke-linecap:round;stroke-linejoin:round"
         id="path3235" />
      <path
         inkscape:connector-curvature="0"
         d="m 174.75,249.5 c -1.64,6.13 -6.96,5.54 -13.25,3.85 -6.3,-1.69 -11.19,-3.83 -9.55,-9.96 1.64,-6.13 8.08,-9.73 14.37,-8.04 6.3,1.69 10.07,8.02 8.43,14.15 z"
         style="fill:#ffffff;stroke:#000000;stroke-width:4;stroke-linecap:round;stroke-linejoin:round"
         id="path3237" />
      <path
         inkscape:connector-curvature="0"
         d="m 195.03,248.49 c 0,6.34 -5.28,7.15 -11.8,7.15 -6.52,0 -11.8,-0.81 -11.8,-7.15 0,-6.35 5.28,-11.49 11.8,-11.49 6.52,0 11.8,5.14 11.8,11.49 z"
         style="fill:#ffffff;stroke:#000000;stroke-width:4;stroke-linecap:round;stroke-linejoin:round"
         id="path3224" />
      <path
         inkscape:connector-curvature="0"
         d="m 102.03,248.49 c 0,6.34 -5.283,7.15 -11.801,7.15 -6.518,0 -11.801,-0.81 -11.799,-7.15 -0.002,-6.35 5.281,-11.49 11.799,-11.49 6.518,0 11.801,5.14 11.801,11.49 z"
         style="fill:#ffffff;stroke:#000000;stroke-width:4;stroke-linecap:round;stroke-linejoin:round"
         id="path3243" />
      <path
         inkscape:connector-curvature="0"
         d="m 155.32,209.62 c -0.41,15.42 -13.04,27.81 -28.57,27.81 -11.94,0 -22.16,-7.35 -26.43,-17.75 -0.01,0.27 -0.03,0.54 -0.03,0.81 -0.01,15.79 12.8,28.6 28.59,28.6 15.79,0 28.57,-12.81 28.56,-28.6 0,-3.85 -0.74,-7.52 -2.12,-10.87 z"
         style="fill:#000000;fill-opacity:0.31373004"
         id="path3287" />
      <path
         inkscape:connector-curvature="0"
         d="m 201.75,187.81 c 10.56,8.16 13.35,24.67 13.34,39.25 0.01,23.47 -19,26.47 -42.47,26.47 -5.09,0 -9.94,-0.16 -14.46,-0.62 6.93,2.22 15.62,2.71 25.06,2.71 22.68,0 41.07,-2.88 41.06,-25.56 0.01,-17.77 -4.28,-38.49 -22.53,-42.25 z"
         style="fill:#000000;fill-opacity:0.31373004"
         id="path3358" />
      <path
         inkscape:connector-curvature="0"
         d="m 94.656,130.47 c 0.777,0.84 1.503,1.81 2.125,2.91 4.549,7.97 -13.959,36.28 -19.219,34.65 0.306,0.85 0.629,1.52 1,1.97 3.867,4.7 26.868,-23.61 22.938,-32.31 -1.567,-3.47 -4.037,-5.85 -6.844,-7.22 z"
         style="fill:#000000;fill-opacity:0.31373004;fill-rule:evenodd"
         id="path3363" />
    </g>
    <g
       transform="matrix(0.24027523,-0.05017018,-0.05017018,-0.24027523,312.85988,301.54488)"
       id="g5210">
      <path
         inkscape:connector-curvature="0"
         d="m 588.92,364.45 12.122,-6.0609 5.0508,-6.0609 2.0203,-7.0711 -1.0102,-7.0711 -1.0102,-6.0609 h 6.0609 l 1.0102,2.0203 -4.0406,-16.162 -6.0609,-12.122 -19.193,-20.203 -28.284,-25.254 -29.294,-17.173 -29.294,-15.152 -15.152,-5.0508 -28.284,-6.0609 -24.244,-5.0508 -29.294,-2.0203 h -21.213 l -9.0914,-2.0203 6.0609,-23.234 11.112,-27.274 1.0102,-12.122 -2.0203,-9.0914 -1.0102,-4.0406 -8.0812,-2.0203 -4.0406,-3.0305 -8.0812,1.0102 -4.0406,7.0711 -4.0406,7.0711 v 3.0305 l 3.0305,11.112 -3.0305,16.162 -6.0609,29.294 -2.0203,7.0711 -11.112,-3.0305 -22.223,-8.0812 -23.234,-1.0102 h -16.162 l -15.152,-1.0102 -21.213,4.0406 -20.203,5.0508 -23.234,2.0203 -34.345,11.112 -27.274,12.122 -31.315,18.183 -21.213,17.173 -14.142,18.183 8.0812,6.0609 9.0914,16.162 9.0914,16.162 7.0711,7.0711 h 7.0711 l 11.112,2.0203 5.0508,7.0711 h 7.0711 l 7.0711,2.0203 4.0406,1.0102 5.0508,-1.0102 h 11.112 l 8.0812,8.0812 12.122,16.162 7.0711,7.0711 2.0203,12.122 6.0609,8.0812 -4.0406,5.0508 -4.0406,7.0711 1.0102,7.0711 10.102,13.132 11.112,11.112 4.0406,12.122 2.0203,23.234 -3.0305,10.102 -2.0203,14.142 -1.0102,10.102 8.0812,11.112 1.0102,2.0203 8.0812,5.0508 -1.0102,10.102 7.0711,8.0812 3.0305,11.112 -1.0102,10.102 2.0203,10.102 -1.0102,-5.0508 v 14.142 l -4.0406,18.183 -11.112,9.0914 -4.0406,4.0406 h -5.0508 l -6.0609,5.0508 -1.0102,8.0812 -2.0203,9.0914 -4.0406,17.173 -2.0203,5.0508 -3.0305,2.0203 4.0406,8.0812 -3.0304,7.0711 -4.0406,7.0711 v 7.0711 l -2.0203,8.0812 -5.0508,7.0711 1.0102,5.0508 -2.0203,8.0812 v 17.173 l -9.0914,15.152 -2.0203,12.122 -3.0305,6.0609 -7.0711,-7.0711 -6.0609,-5.0508 1.0102,10.102 -6.0609,13.132 h -4.0406 l -3.0304,3.0305 -2.0203,8.0812 -6.0609,5.0508 -3.0305,3.0305 1.0102,5.0508 v 5.0508 l -2.0203,5.0508 14.142,7.0711 13.132,6.0609 8.0812,9.0914 13.132,15.152 15.152,13.132 15.152,9.0914 17.173,4.0406 11.112,3.0305 14.142,2.0203 h 15.152 l 16.162,2.0203 24.244,12.122 19.193,11.112 17.173,4.0406 28.284,5.0508 18.183,-1.0102 21.213,-6.0609 18.183,-10.102 18.183,-10.102 16.162,-4.0406 23.234,-1.0102 19.193,-4.0406 23.234,-18.183 13.132,-15.152 9.0914,-17.173 9.0914,-16.162 3.0305,-8.0812 -4.0406,-6.0609 -4.0406,-5.0508 v -9.0914 -9.0914 l 3.0305,-5.0508 -5.0508,-3.0305 3.0305,-10.102 -3.0305,-10.102 -11.112,-15.152 -14.142,-8.0812 -18.183,-17.173 2.0203,-8.0812 -1.0102,-11.112 -15.152,-19.193 -4.0406,-9.0914 -2.0203,-7.0711 2.0203,-21.213 -6.0609,-12.122 -6.0609,-10.102 4.0406,-3.0305 -6.0609,-10.102 -5.0508,-3.0305 -4.0406,-15.152 2.0203,-9.0914 v -4.0406 l -1.0102,-8.0812 3.0305,-13.132 3.0305,-8.0812 v -9.0914 l -3.0305,-10.102 -3.0305,-6.0609 h 13.132 l 9.0914,-1.0102 8.0812,-8.0812 9.0914,-6.0609 -6.0609,1.0102 -3.0305,-1.0102 v -6.0609 l 4.0406,-12.122 1.0102,-5.0508 1.0102,-12.122 2.0203,-2.0203 -7.0711,-9.0914 -1.0102,-1.0102 7.0711,-3.0305 4.0406,-7.0711 8.0812,-14.142 12.122,-17.173 13.132,-12.122 11.112,-18.183 18.183,-14.142 10.102,-5.0508 4.0406,1.0102 2.0203,7.0711 z"
         style="fill:#e2d89b"
         id="path2943" />
      <path
         inkscape:connector-curvature="0"
         d="m 72.731,286.67 12.122,-6.0609 17.173,-5.0508 8.0812,-1.0102 19.193,8.0812 6.0609,9.0914 3.0305,9.0914 15.152,1.0102 19.193,-2.0203 19.193,3.0304 15.152,7.0711 14.142,13.132 9.0914,20.203 9.0914,16.162 14.142,7.0711 6.0609,11.112 7.0711,15.152 1.0102,9.0914 13.132,-4.0406 14.142,-1.0102 8.0812,-17.173 10.102,-14.142 10.102,-10.102 14.142,-10.102 22.223,-2.0203 10.102,1.0102 4.0406,-3.0305 4.0406,-15.152 8.0812,-8.0812 10.102,-3.0305 h 17.173 l 8.0812,5.0508 15.152,4.0406 5.0508,-7.0711 8.0812,-6.0609 9.0914,-4.0406 h 5.0508 l 15.152,13.132 11.112,14.142 v 9.0914 l 19.193,-2.0203 29.294,4.0406 h 23.234 21.213 l 9.0914,1.0102 15.152,3.0305 1.0102,-4.0406 -3.0305,-10.102 2.0203,-5.0508 4.0406,2.0203 v -9.0914 l -8.0812,-18.183 -12.122,-15.152 -19.193,-17.173 -16.162,-12.122 -21.213,-12.122 -20.203,-12.122 -17.173,-9.0914 -25.254,-7.0711 -31.315,-7.0711 -17.173,-3.0305 -40.406,-1.0102 -21.213,-1.0102 -24.244,-2.0203 -25.254,-9.0914 -28.284,-1.0102 -24.244,-1.0102 -20.203,3.0305 -25.254,8.0812 h -16.162 l -30.305,9.0914 -26.264,8.0812 -23.234,12.122 -27.274,19.193 -13.132,13.132 -9.0914,14.142 4.0406,5.0508 z"
         style="fill:#750006"
         sodipodi:nodetypes="ccccccccccccccccccccccccccccccccccccccccccccccccccccccccccccccccccccccccccccc"
         id="path2945" />
      <path
         inkscape:connector-curvature="0"
         d="m 128.29,811.95 3.0305,-8.0812 -4.0406,-3.0305 4.0406,-4.0406 13.132,-3.0305 5.0508,-3.0305 1.0102,4.0406 -3.0305,10.102 -1.0102,9.0914 v 7.0711 l -13.132,-6.0609 -5.0508,-3.0304 z"
         style="fill:#750006"
         id="path2947" />
      <path
         inkscape:connector-curvature="0"
         d="m 157.58,828.11 v -12.122 l 4.0406,-3.0305 8.0812,2.0203 8.0812,-4.0406 6.0609,-8.0812 -3.0304,-13.132 9.0914,-6.0609 1.0102,-1.0102 19.193,16.162 17.173,15.152 25.254,19.193 20.203,9.0914 20.203,-1.0102 24.244,6.0609 25.254,-2.0203 9.0914,-5.0508 6.0609,-5.0508 2.0203,-13.132 4.0406,-8.0812 15.152,-6.0609 13.132,13.132 12.122,15.152 12.122,9.0914 20.203,7.0711 14.142,-1.0102 20.203,-6.0609 18.183,-10.102 16.162,-12.122 6.0609,-11.112 17.173,-4.0406 8.0812,-7.0711 3.0305,-8.0812 15.152,6.0609 8.0812,5.0508 -9.0914,21.213 -11.112,18.183 -12.122,18.183 -14.142,12.122 -20.203,9.0914 -18.183,3.0305 -16.162,-3.0305 -11.112,4.0406 -21.213,11.112 -20.203,11.112 -22.223,6.0609 -23.234,-1.0102 -30.305,-5.0508 -19.193,-10.102 -22.223,-11.112 -16.162,-5.0508 -38.386,-5.0508 -26.264,-3.0305 -20.203,-13.132 -20.203,-18.183 -13.132,-15.152 z"
         style="fill:#750006"
         id="path2949" />
      <path
         inkscape:connector-curvature="0"
         d="m 336.38,266.46 9.0914,-29.294 4.0406,-31.315 7.0711,-32.325 3.0305,-18.183 -5.0508,-15.152 11.112,-13.132 6.0609,-1.0102 7.0711,3.0305 7.0711,3.0304 3.0305,20.203 -5.0508,16.162 -10.102,24.244 -6.0609,29.294 -2.0203,22.223 1.0102,20.203 -11.112,4.0406 h -12.122 l -7.0711,-2.0203 z"
         style="fill:#1d1600"
         id="path2951" />
      <path
         inkscape:connector-curvature="0"
         d="m 609.12,331.11 -12.122,-18.183 -34.345,-29.294 -28.284,-18.183 -24.244,-14.142 -35.355,-1.0102 -14.142,5.0508 -12.122,4.0406 18.183,11.112 2.0203,4.0406 -17.173,-1.0102 -12.122,3.0305 -29.294,-2.0203 -33.335,-5.0508 h -14.142 l -1.0102,-4.0406 24.244,1.0102 31.315,2.0203 10.102,-1.0102 -8.0812,-5.0508 v -5.0508 l 7.0711,-6.0609 22.223,-12.122 18.183,-2.0203 -5.0508,-5.0508 -5.0508,-5.0508 -8.0812,-7.0711 -3.0305,-3.0305 h 6.0609 l 20.203,5.0508 24.244,4.0406 21.213,12.122 28.284,14.142 28.284,21.213 23.234,23.234 15.152,20.203 -3.0305,14.142 z"
         style="fill:#ffffff;fill-opacity:0.54955002"
         id="path2953" />
      <path
         inkscape:connector-curvature="0"
         d="m 346.48,275.55 -21.213,-3.0305 -28.284,5.0508 -30.305,-2.0203 -11.112,-4.0406 -20.203,2.0203 -7.0711,6.0609 4.0406,-10.102 3.0304,-4.0406 -3.0304,-3.0305 -4.0406,-6.0609 -13.132,-8.0812 11.112,-1.0102 1.0102,-2.0203 -3.0304,-5.0508 -5.0508,-6.0609 -28.284,-4.0406 -22.223,8.0812 -19.193,10.102 -12.122,6.0609 -21.213,16.162 -6.0609,2.0203 -20.203,4.0406 -4.0406,-1.0102 1.0102,-6.0609 1.0102,-4.0406 8.0812,-16.162 17.173,-9.0914 22.223,-15.152 22.223,-7.0711 30.305,-10.102 15.152,-3.0304 13.132,2.0203 23.234,-10.102 21.213,-3.0305 28.284,1.0102 28.284,2.0203 3.0305,4.0406 h -20.203 l -22.223,2.0203 -5.0508,8.0812 -3.0305,8.0812 4.0406,10.102 10.102,10.102 18.183,20.203 3.0305,10.102 2.0203,1.0102 14.142,-1.0102 15.152,-1.0102 h 8.0812 l 2.0203,7.0711 z"
         style="fill:#ffffff;fill-opacity:0.54955002"
         id="path2955" />
      <path
         inkscape:connector-curvature="0"
         d="m 307.09,270.5 -24.244,-1.0102 -13.132,-3.0305 -4.0406,-5.0508 3.0305,-5.0508 10.102,-1.0102 -2.0203,-1.0102 -12.122,-14.142 -22.223,-16.162 -35.355,-9.0914 -7.0711,-4.0406 18.183,-3.0305 h 14.142 l 16.162,2.0203 28.284,11.112 25.254,12.122 17.173,17.173 2.0203,8.0812 -2.0203,6.0609 -5.0508,1.0102 -7.0711,-9.0914 -10.102,-6.0609 10.102,14.142 v 6.0609 z"
         style="fill:#000000;fill-opacity:0.54955002"
         id="path2957" />
      <path
         inkscape:connector-curvature="0"
         d="m 369.72,265.45 32.325,3.0305 9.0914,-4.0406 7.0711,-5.0508 7.0711,-8.0812 19.193,-9.0914 12.122,-5.0508 5.0508,-2.0203 -10.102,-12.122 -16.162,-9.0914 h -34.345 l -14.142,-1.0102 -12.122,-1.0102 -5.0508,-1.0102 -3.0305,19.193 -1.0102,12.122 v 12.122 l 4.0406,11.112 z"
         style="fill:#000000;fill-opacity:0.54955002"
         id="path2959" />
      <path
         inkscape:connector-curvature="0"
         d="m 301.03,232.12 12.122,6.0609 2.0203,-10.102 6.0609,-3.0305 6.0609,1.0102 10.102,2.0203 h 5.0508 l 5.0508,-14.142 1.0102,-6.0609 -25.254,-8.0812 h -16.162 l -25.254,2.0203 -8.0812,10.102 -3.0305,6.0609 16.162,8.0812 9.0914,5.0508 5.0508,1.0102 z"
         style="fill:#000000;fill-opacity:0.54955002"
         id="path2961" />
      <path
         inkscape:connector-curvature="0"
         d="m 150.51,252.32 22.223,5.0508 10.102,18.183 2.0203,14.142 23.234,6.0609 47.477,10.102 h 6.0609 l 6.0609,-11.112 -12.122,-7.0711 -41.416,-13.132 -17.173,-10.102 -24.244,-15.152 -8.0812,-4.0406 -14.142,7.0711 z"
         style="fill:#ffffff;fill-opacity:0.54955002"
         id="path2963" />
      <path
         inkscape:connector-curvature="0"
         d="m 279.81,304.85 24.244,5.0508 16.162,-1.0102 12.122,-5.0508 13.132,-12.122 -38.386,-4.0406 -26.264,1.0102 -7.0711,8.0812 6.0609,8.0812 z"
         style="fill:#ffffff;fill-opacity:0.54955002"
         id="path2965" />
      <path
         inkscape:connector-curvature="0"
         d="m 338.4,846.29 5.0508,16.162 -1.0102,13.132 -5.0508,13.132 3.0305,9.0914 6.0609,5.0508 13.132,10.102 23.234,3.0305 8.0812,-6.0609 6.0609,-11.112 4.0406,-19.193 16.162,-11.112 3.0305,-20.203 -20.203,-13.132 -8.0812,-15.152 -13.132,-14.142 -14.142,7.0711 -5.0508,5.0508 -4.0406,12.122 -2.0203,8.0812 -19.193,9.0914 4.0406,-1.0102 z"
         style="fill:#ffffff;fill-opacity:0.34234003"
         id="path2967" />
      <path
         inkscape:connector-curvature="0"
         d="m 188.9,782.65 47.477,38.386 30.305,20.203 25.254,1.0102 32.325,5.0508 17.173,-2.0203 3.0305,21.213 -5.0508,24.244 14.142,18.183 5.0508,5.0508 -27.274,-8.0812 -35.355,-18.183 -26.264,-6.0609 -44.447,-7.0711 -22.223,-5.0508 -26.264,-23.234 -22.223,-23.234 2.0203,-8.0812 4.0406,-2.0203 h 12.122 l 7.0711,-7.0711 4.0406,-13.132 -3.0304,-4.0406 13.132,-6.0609 h -5.0508 z"
         style="fill:#000000;fill-opacity:0.34234003"
         id="path2969" />
      <path
         inkscape:connector-curvature="0"
         d="m 441.44,890.74 23.234,-15.152 9.0914,-4.0406 13.132,2.0203 h 21.213 l 7.0711,1.0102 -23.234,10.102 -30.305,1.0102 -9.0914,1.0102 -11.112,4.0406 z"
         style="fill:#000000;fill-opacity:0.34234003"
         id="path2971" />
      <path
         inkscape:connector-curvature="0"
         d="m 425.27,605.87 -4.0406,21.213 -2.0203,2.0203 -1.0102,10.102 4.0406,16.162 5.0508,8.0812 -2.0203,19.193 2.0203,13.132 6.0609,3.0305 -1.0102,9.0914 4.0406,14.142 13.132,11.112 9.0914,16.162 5.0508,4.0406 8.0812,-1.0102 1.0102,-6.0609 V 740.22 l 7.0711,-5.0508 -23.234,-19.193 -10.102,-12.122 -4.0406,-18.183 4.0406,-4.0406 4.0406,-9.0914 10.102,-8.0812 9.0914,-4.0406 6.0609,-3.0305 v 2.0203 l 4.0406,20.203 1.0102,3.0305 5.0508,22.223 3.0305,26.264 16.162,17.173 14.142,1.0102 9.0914,-1.0102 9.0914,10.102 -3.0304,8.0812 -7.0711,7.0711 1.0102,8.0812 7.0711,12.122 14.142,1.0102 9.0914,6.0609 -2.0203,-11.112 -1.0102,-16.162 -1.0102,-9.0914 -2.0203,-18.183 -8.0812,-13.132 -15.152,-9.0914 -22.223,-16.162 5.0508,-11.112 -5.0508,-14.142 -13.132,-14.142 -7.0711,-16.162 4.0406,-19.193 -5.0508,-8.0812 -11.112,-17.173 -7.0711,-14.142 -3.0305,-13.132 1.0102,-15.152 2.0203,-14.142 3.0305,-9.0914 5.0508,-10.102 -5.0508,-21.213 -8.0812,-4.0406 -9.0914,1.0102 -11.112,-2.0203 -11.112,5.0508 -10.102,3.0305 -6.0609,9.0914 -8.0812,15.152 -3.0305,9.0914 4.0406,12.122 3.0305,5.0508 7.0711,6.0609 5.0508,9.0914 5.0508,7.0711 8.0812,-1.0102 12.122,-6.0609 -8.0812,8.0812 -6.0609,5.0508 -10.102,8.0812 1.0102,5.0508 z"
         style="fill:#001b2c;fill-opacity:0.42342003"
         id="path2973" />
      <path
         inkscape:connector-curvature="0"
         d="M 431.34,546.28 Z"
         style="fill:none"
         id="path2975" />
      <path
         inkscape:connector-curvature="0"
         d="m 440.43,537.18 6.0609,-2.0203 7.0711,3.0305 3.0305,10.102 -3.0305,11.112 -5.0508,6.0609 -6.0609,2.0203 -8.0812,3.0305 v -7.0711 l -4.0406,-3.0305 -4.0406,1.0102 2.0203,-3.0305 2.0203,-7.0711 -1.0102,-13.132 2.0203,-2.0203 h 3.0304 l 6.0609,1.0102 z"
         style="fill:#000000;fill-opacity:0.42342003"
         id="path2977" />
      <path
         inkscape:connector-curvature="0"
         d="m 449.52,512.94 3.0305,6.0609 1.0102,8.0812 -4.0406,5.0508 -5.0508,3.0305 -6.0609,1.0102 -5.0508,-3.0305 2.0203,-6.0609 7.0711,-4.0406 3.0305,-3.0305 4.0406,-7.0711 z"
         style="fill:#000000;fill-opacity:0.34234003"
         id="path2979" />
      <path
         inkscape:connector-curvature="0"
         d="m 460.63,753.36 -1.0102,12.122 1.0102,11.112 4.0406,10.102 3.0305,1.0102 19.193,-7.0711 7.0711,-2.0203 5.0508,11.112 10.102,14.142 4.0406,3.0304 10.102,1.0102 1.0102,-7.0711 -1.0102,-4.0406 -11.112,-9.0914 -5.0508,-5.0508 -8.0812,-4.0406 -13.132,-10.102 -8.0812,-11.112 -7.0711,-3.0305 -5.0508,2.0203 -5.0508,-3.0305 z"
         style="fill:#001b2c;fill-opacity:0.42342003"
         id="path2981" />
      <path
         inkscape:connector-curvature="0"
         d="m 303.05,835.18 13.132,-62.629 9.0914,-20.203 12.122,1.0102 7.0711,3.0305 6.0609,-10.102 -1.0102,-23.234 -1.0102,-20.203 2.0203,-29.294 2.0203,-23.234 4.0406,-27.274 3.0305,-20.203 -5.0508,-12.122 -10.102,-10.102 2.0203,-6.0609 13.132,-18.183 3.0304,-10.102 2.0203,-13.132 -6.0609,-16.162 -5.0508,8.0812 -2.0203,17.173 -2.0203,13.132 -10.102,8.0812 -5.0508,-7.0711 -1.0102,-21.213 -6.0609,-9.0914 -1.0102,-10.102 7.0711,-15.152 3.0305,-18.183 10.102,-16.162 15.152,-14.142 4.0406,-7.0711 20.203,-19.193 -1.0102,-15.152 -7.0711,1.0102 -8.0812,-6.0609 -13.132,8.0812 -17.173,22.223 -9.0914,1.0102 -9.0914,-1.0102 -4.0406,-21.213 6.0609,-9.0914 15.152,-20.203 2.0203,-6.0609 1.0102,-17.173 4.0406,-5.0508 10.102,-1.0102 -11.112,-8.0812 h -7.0711 l -13.132,7.0711 -17.173,19.193 -10.102,25.254 -8.0812,2.0203 -1.0102,13.132 2.0203,12.122 6.0609,10.102 7.0711,21.213 -5.0508,16.162 -6.0609,2.0203 -8.0812,3.0305 -6.0609,7.0711 4.0406,5.0508 9.0914,8.0812 6.0609,8.0812 8.0812,3.0305 7.0711,18.183 v 80.812 l 7.0711,-64.65 5.0508,29.294 4.0406,14.142 -2.0203,13.132 -5.0508,26.264 -2.0203,26.264 v 15.152 l 5.0508,27.274 v 18.183 l -3.0305,18.183 -8.0812,15.152 -8.0812,-3.0305 -12.122,-16.162 -2.0203,-25.254 -17.173,6.0609 -3.0305,8.0812 -6.0609,14.142 -7.0711,14.142 1.0102,7.0711 7.0711,-1.0102 15.152,-9.0914 13.132,5.0508 5.0508,8.0812 -4.0406,14.142 -22.223,25.254 -10.102,13.132 -11.112,11.112 -2.0203,5.0508 5.0508,4.0406 5.0508,5.0508 7.0711,2.0203 11.112,5.0508 h 12.122 10.102 l 3.0304,-6.0609 z"
         style="fill:#001b2c;fill-opacity:0.42342003"
         id="path2983" />
      <path
         inkscape:connector-curvature="0"
         d="m 155.56,792.75 8.0812,-2.0203 21.213,-11.112 -3.0305,-19.193 7.0711,-22.223 10.102,-22.223 4.0406,-20.203 9.0914,-11.112 10.102,-23.234 6.0609,-10.102 10.102,-4.0406 4.0406,-23.234 2.0203,-15.152 v -22.223 l 3.0304,-14.142 -5.0508,-41.416 -6.0609,-19.193 2.0203,-14.142 5.0508,-29.294 9.0914,-13.132 3.0304,-28.284 -15.152,-8.0812 -1.0102,-15.152 1.0102,-14.142 5.0508,-6.0609 -15.152,-17.173 2.0203,-11.112 -1.0102,-9.0914 -12.122,-25.254 -18.183,-12.122 -11.112,-3.0305 -12.122,-1.0102 3.0305,8.0812 3.0304,18.183 -9.0914,-4.0406 -23.234,-12.122 h -12.122 l -8.0812,1.0102 -3.0305,8.0812 7.0711,3.0305 26.264,6.0609 8.0812,12.122 4.0406,11.112 10.102,11.112 4.0406,6.0609 3.0305,11.112 5.0508,8.0812 -11.112,9.0914 4.0406,12.122 16.162,18.183 7.0711,14.142 1.0102,21.213 -2.0203,22.223 v 17.173 l 9.0914,13.132 4.0406,1.0102 2.0203,14.142 8.0812,8.0812 v 19.193 21.213 l -7.0711,19.193 -11.112,11.112 h -8.0812 l -5.0508,5.0508 -2.0203,20.203 -3.0305,16.162 -6.0609,4.0406 5.0508,8.0812 -6.0609,14.142 -4.0406,6.0609 v 7.0711 l -4.0406,10.102 -3.0305,24.244 -3.0304,11.112 -7.0711,11.112 -4.0406,15.152 -9.0914,-10.102 -11.112,22.223 -3.0305,2.0203 -3.0305,6.0609 -8.0812,11.112 12.122,-4.0406 7.0711,-3.0305 5.0508,2.0203 z"
         style="fill:#001b2c;fill-opacity:0.42342003"
         id="path2985" />
      <path
         inkscape:connector-curvature="0"
         d="m 481.84,338.18 -35.355,52.528 -5.0508,33.335 -14.142,16.162 -49.497,17.173 -3.0305,9.0914 14.142,1.0102 40.406,-7.0711 9.0914,-3.0305 12.122,2.0203 12.122,5.0508 v 15.152 l -7.0711,7.0711 -13.132,2.0203 -7.0711,-12.122 -5.0508,15.152 -5.0508,22.223 19.193,-8.0812 21.213,4.0406 11.112,2.0203 10.102,-3.0305 8.0812,-4.0406 10.102,-10.102 -6.0609,-1.0102 8.0812,-35.355 -8.0812,-10.102 10.102,-8.0812 22.223,-33.335 18.183,-19.193 12.122,-20.203 21.213,-12.122 6.0609,6.0609 3.0305,3.0305 10.102,-7.0711 5.0508,-7.0711 -24.244,-4.0406 h -49.497 l -35.355,-5.0508 -8.0812,-3.0305 h -8.0812 z"
         style="fill:#001b2c;fill-opacity:0.42342003"
         id="path2987" />
      <path
         inkscape:connector-curvature="0"
         d="m 237.39,532.13 17.173,7.0711 14.142,22.223 6.0609,16.162 -5.0508,14.142 -6.0609,26.264 4.0406,24.244 5.0508,16.162 16.162,18.183 -7.0711,1.0102 -12.122,-19.193 -5.0508,-2.0203 -7.0711,8.0812 -7.0711,13.132 11.112,16.162 -8.0812,5.0508 -7.0711,-10.102 -7.0711,-2.0203 -14.142,-2.0203 -11.112,2.0203 5.0508,-14.142 8.0812,-19.193 11.112,-6.0609 3.0305,-21.213 4.0406,-28.284 -2.0203,-23.234 4.0406,-11.112 -5.0508,-27.274 -3.0305,-9.0914 -2.0203,5.0508 z"
         style="fill:#46452a;fill-opacity:0.34234003"
         id="path2989" />
      <path
         inkscape:connector-curvature="0"
         d="m 291.93,473.54 -10.102,-9.0914 -13.132,-5.0508 -11.112,-4.0406 -5.0508,-28.284 5.0508,-4.0406 7.0711,-4.0406 18.183,-2.0203 6.0609,8.0812 9.0914,20.203 5.0508,15.152 -11.112,13.132 z"
         style="fill:#3d3800;fill-opacity:0.34234003"
         id="path2991" />
      <path
         inkscape:connector-curvature="0"
         d="m 385.88,410.92 12.122,-17.173 20.203,-10.102 16.162,-13.132 13.132,-14.142 12.122,-6.0609 -2.0203,-12.122 -7.0711,-7.0711 v -12.122 -5.0508 l -6.0609,5.0508 -10.102,8.0812 -19.193,-9.0914 -21.213,-1.0102 -13.132,8.0812 -9.0914,20.203 -11.112,-2.0203 -5.0508,6.0609 -2.0203,7.0711 -5.0508,13.132 -3.0305,8.0812 5.0508,3.0305 10.102,9.0914 4.0406,7.0711 8.0812,7.0711 9.0914,8.0812 4.0406,-1.0102 z"
         style="fill:#595738;fill-opacity:0.34234003"
         id="path2993" />
    </g>
  </g>
</svg>
